<mxfile host="app.diagrams.net" modified="2021-01-02T10:32:50.029Z" agent="5.0 (Windows)" etag="MC4z8NkSJt4aX5lF8g5z" version="14.1.7" type="github">
  <diagram id="UkEdO78DAO37uY5rxgCi" name="Page-1">
    <mxGraphModel dx="1157" dy="639" grid="1" gridSize="10" guides="1" tooltips="1" connect="1" arrows="1" fold="1" page="1" pageScale="1" pageWidth="1100" pageHeight="850" math="0" shadow="0">
      <root>
        <mxCell id="0" />
        <mxCell id="1" parent="0" />
        <mxCell id="asSBpoJGRj7BXhes8iBR-1" value="نظرسنجی" style="shape=note;whiteSpace=wrap;html=1;size=14;verticalAlign=top;align=left;spacingTop=-6;rounded=0;shadow=0;comic=0;labelBackgroundColor=none;strokeWidth=1;fontFamily=Verdana;fontSize=12" vertex="1" parent="1">
          <mxGeometry width="100" height="35" as="geometry" />
        </mxCell>
        <mxCell id="asSBpoJGRj7BXhes8iBR-2" value="&lt;b&gt;&lt;font&gt;&lt;font style=&quot;font-size: 18px&quot;&gt;سیستم &lt;/font&gt;&lt;br&gt;&lt;/font&gt;&lt;/b&gt;" style="shape=umlLifeline;perimeter=lifelinePerimeter;whiteSpace=wrap;html=1;container=1;collapsible=0;recursiveResize=0;outlineConnect=0;" vertex="1" parent="1">
          <mxGeometry x="40" y="80" width="100" height="760" as="geometry" />
        </mxCell>
        <mxCell id="asSBpoJGRj7BXhes8iBR-3" value="" style="html=1;points=[];perimeter=orthogonalPerimeter;rounded=0;shadow=0;comic=0;labelBackgroundColor=none;strokeWidth=1;fontFamily=Verdana;fontSize=12;align=center;" vertex="1" parent="asSBpoJGRj7BXhes8iBR-2">
          <mxGeometry x="45" y="80" width="10" height="640" as="geometry" />
        </mxCell>
      </root>
    </mxGraphModel>
  </diagram>
</mxfile>
